<svg width="478" height="514" viewBox="0 0 478 514" fill="none" xmlns="http://www.w3.org/2000/svg">
<path d="M817.5 157.129C817.5 353.19 665.5 530.129 393.5 512.129C152 496.148 0 331.004 0 134.942C0 -61.1186 59.5 -261.871 393.5 -197.871C627.669 -197.871 817.5 -38.9318 817.5 157.129Z" fill="#BCE9F1"/>
<path opacity="0.37" d="M160.468 409.271C161.283 411.287 162.183 413.303 163.17 415.233C177.838 444.012 207.604 462.155 239.343 465.414C264.734 467.988 289.438 459.71 310.669 446.2C331.856 432.732 348.841 413.775 372.388 403.91C405.584 390.056 442.599 379.12 468.633 349.783C498.227 316.457 509.636 265.933 495.696 223.3C482.143 181.697 437.151 168.229 402.196 149.915C339.362 116.933 252.338 95.0158 186.931 133.746C108.571 180.11 122.81 285.362 147.644 358.404C153.305 375.045 153.991 392.973 160.468 409.271Z" fill="#B5E7F0"/>
<path d="M200.441 212.063L200.313 211.248H199.498C183.628 211.248 178.482 206.144 178.439 206.101L177.752 205.329L177.066 206.101C177.023 206.144 171.919 211.248 156.007 211.248H155.192L155.064 212.063C155.021 212.32 151.675 237.883 177.324 251.007L177.752 251.221L178.181 251.007C203.915 237.883 200.441 212.32 200.441 212.063ZM196.581 227.889C193.407 237.068 187.06 244.187 177.71 249.077C168.36 244.187 162.012 237.068 158.838 227.889C156.522 221.155 156.651 215.279 156.822 213.178C170.032 213.006 175.908 209.489 177.71 208.031C179.511 209.446 185.387 213.006 198.597 213.178C198.769 215.322 198.897 221.155 196.581 227.889ZM225.618 179.209L224.717 176.85C223.902 176.764 223.13 176.55 222.358 176.292L220.514 178.008L215.196 174.191L216.225 171.875C215.71 171.231 215.281 170.545 214.938 169.816L212.408 169.73L211.335 163.254L213.694 162.353C213.78 161.538 213.995 160.766 214.252 159.994L212.536 158.15L216.354 152.789L218.67 153.818C219.313 153.303 219.999 152.874 220.728 152.531L220.814 150.001L227.29 148.929L228.191 151.288C229.006 151.373 229.778 151.588 230.55 151.845L232.394 150.13L237.713 153.947L236.683 156.263C237.198 156.906 237.627 157.592 237.97 158.322L240.501 158.407L241.573 164.884L239.214 165.784C239.085 166.599 238.914 167.371 238.656 168.143L240.372 169.988L236.555 175.349L234.239 174.319C233.595 174.834 232.909 175.263 232.18 175.606L232.094 178.137L225.618 179.209ZM221.929 174.234L222.444 174.448C223.387 174.834 224.417 175.049 225.446 175.134L226.004 175.177L226.776 177.193L230.336 176.593L230.421 174.448L230.936 174.234C231.88 173.805 232.738 173.247 233.552 172.604L233.981 172.261L235.954 173.161L238.056 170.245L236.555 168.658L236.769 168.143C237.155 167.2 237.37 166.17 237.455 165.141L237.498 164.583L239.514 163.811L238.914 160.252L236.769 160.166L236.555 159.651C236.126 158.708 235.568 157.85 234.925 157.035L234.582 156.606L235.482 154.633L232.566 152.531L230.979 153.99L230.464 153.775C229.521 153.389 228.491 153.175 227.462 153.089L226.904 153.046L226.132 151.03L222.573 151.631L222.487 153.775L221.972 153.99C221.029 154.419 220.171 154.976 219.356 155.619L218.927 155.963L216.954 155.062L214.852 157.978L216.354 159.565L216.139 160.08C215.753 161.024 215.539 162.053 215.453 163.082L215.41 163.64L213.394 164.412L213.995 167.972L216.139 168.058L216.354 168.572C216.782 169.516 217.34 170.374 217.983 171.189L218.326 171.617L217.426 173.59L220.342 175.692L221.929 174.234ZM226.39 171.231C224.932 171.231 223.473 170.76 222.272 169.902C219.056 167.629 218.326 163.168 220.6 159.951C222.873 156.735 227.333 156.005 230.55 158.279C232.094 159.394 233.124 161.024 233.467 162.911C233.767 164.798 233.338 166.685 232.266 168.229C231.151 169.773 229.521 170.803 227.634 171.146C227.162 171.189 226.776 171.231 226.39 171.231ZM226.39 158.75C224.717 158.75 223.087 159.522 222.058 160.981C221.243 162.139 220.9 163.554 221.157 164.969C221.415 166.385 222.144 167.586 223.302 168.401C224.46 169.216 225.875 169.559 227.29 169.301C228.706 169.044 229.907 168.315 230.722 167.157C231.537 165.999 231.88 164.583 231.622 163.168C231.365 161.753 230.636 160.552 229.478 159.737C228.534 159.094 227.462 158.75 226.39 158.75ZM431.233 249.12L429.217 243.844C427.072 243.587 424.928 243.115 422.912 242.386L418.795 246.246L407.643 238.311L409.959 233.165C408.63 231.492 407.472 229.648 406.528 227.675L400.909 227.503L398.636 213.993L403.912 211.977C404.169 209.832 404.641 207.688 405.37 205.672L401.51 201.555L409.445 190.403L414.591 192.719C416.264 191.39 418.108 190.232 420.081 189.288L420.253 183.67L433.763 181.396L435.779 186.672C437.923 186.929 440.068 187.401 442.084 188.13L446.201 184.27L457.353 192.205L455.037 197.351C456.366 199.024 457.524 200.868 458.468 202.841L464.086 203.013L466.36 216.523L461.084 218.539C460.827 220.684 460.355 222.828 459.626 224.844L463.486 228.961L455.551 240.113L450.405 237.797C448.732 239.126 446.888 240.284 444.915 241.228L444.743 246.847L431.233 249.12ZM422.312 239.641L422.998 239.898C425.271 240.756 427.673 241.314 430.117 241.528L430.89 241.614L432.734 246.418L442.341 244.788L442.513 239.641L443.199 239.341C445.429 238.354 447.531 237.025 449.418 235.438L449.976 234.966L454.694 237.068L460.355 229.133L456.838 225.359L457.095 224.672C457.953 222.399 458.511 219.997 458.725 217.553L458.768 216.781L463.572 214.936L461.942 205.329L456.795 205.157L456.495 204.471C455.508 202.241 454.179 200.139 452.592 198.252L452.12 197.695L454.222 192.977L446.287 187.315L442.513 190.832L441.827 190.575C439.553 189.717 437.151 189.159 434.707 188.945L433.935 188.902L432.09 184.098L422.483 185.728L422.312 190.875L421.625 191.175C419.395 192.162 417.293 193.491 415.406 195.078L414.849 195.55L410.131 193.448L404.555 201.383L408.072 205.157L407.815 205.844C406.957 208.117 406.399 210.519 406.185 212.963L406.142 213.735L401.338 215.58L402.968 225.187L408.115 225.359L408.415 226.045C409.402 228.275 410.731 230.377 412.318 232.264L412.79 232.822L410.688 237.539L418.623 243.201L422.312 239.641ZM432.434 230.806C429.303 230.806 426.172 229.862 423.427 227.932C416.436 222.957 414.806 213.221 419.781 206.23C424.756 199.239 434.492 197.609 441.483 202.584C448.474 207.559 450.104 217.295 445.129 224.286C442.084 228.533 437.28 230.806 432.434 230.806ZM432.476 202.112C428.359 202.112 424.284 204.042 421.754 207.645C419.695 210.519 418.923 213.993 419.481 217.467C420.081 220.941 421.968 223.943 424.842 226.002C430.761 230.205 438.996 228.833 443.199 222.914C445.215 220.04 446.03 216.566 445.472 213.092C444.872 209.618 442.985 206.616 440.111 204.557C437.752 202.884 435.093 202.112 432.476 202.112ZM222.401 345.622C220.342 339.832 217.983 333.313 220.6 326.622C224.117 317.615 216.654 312.983 210.092 308.823C204.43 305.306 199.112 301.96 200.913 296.427C202.886 290.423 202.757 285.791 200.527 282.746C198.64 280.172 195.295 278.8 190.834 278.843C187.274 278.885 184.1 274.511 180.712 269.921C176.723 264.517 172.649 258.942 167.502 260.185C166.601 260.4 165.872 260.915 165.443 261.729C163.642 265.118 166.472 273.181 169.518 281.759C172.777 291.023 176.509 301.488 174.064 305.949C171.405 310.839 176.208 315.299 181.312 320.06C186.717 325.078 192.85 330.782 191.22 337.945C189.676 344.636 189.333 347.124 190.276 348.582C191.006 349.74 192.507 349.997 194.78 350.426C196.324 350.726 198.297 351.069 200.699 351.841C211.035 355.058 214.037 361.749 214.08 361.835L214.209 362.135L214.509 362.092C219.485 361.32 222.401 359.905 223.774 357.632C223.859 357.503 223.902 357.374 223.988 357.246C225.446 354.2 224.031 350.212 222.401 345.622Z" fill="#72D1E2"/>
<path d="M195.981 332.841C197.696 335.5 198.94 337.816 198.812 341.076C198.726 344.121 198.254 347.124 197.997 350.126C197.954 350.769 197.911 351.37 197.868 351.97C197.01 351.241 196.195 350.512 195.337 349.783C194.951 349.74 194.565 349.74 194.136 349.74C195.337 350.726 196.581 351.799 197.782 352.871C197.653 354.972 197.611 357.074 197.611 359.176C197.611 360.419 197.568 361.749 197.653 362.993C196.538 362.307 195.38 361.62 194.308 360.934C190.963 358.875 187.832 356.945 185.43 355.916C183.586 355.144 181.527 354.458 179.554 353.814C174.407 352.142 169.132 350.426 167.373 346.78C166.472 344.893 166.558 342.62 167.63 339.875C170.333 332.798 167.802 331.597 163.556 329.539C160.468 328.037 156.265 326.022 152.061 320.918C150.217 318.687 148.587 316.757 147.129 315.085C142.797 309.981 140.395 307.193 140.696 305.563C140.781 305.177 140.996 304.834 141.425 304.491C141.639 304.319 141.896 304.148 142.24 303.976C143.869 303.075 145.499 303.762 147.343 304.534C149.831 305.563 152.876 306.893 157.122 304.705C160.468 302.99 164.199 301.403 166.43 302.689C167.974 303.547 168.874 305.778 169.174 309.423C169.26 310.581 169.646 311.396 170.29 311.868C171.233 312.554 172.691 312.468 174.364 312.125C175.522 313.712 177.023 314.484 178.825 315.128C181.355 316.028 183.242 316.843 185.087 318.902C189.033 323.362 192.85 327.909 195.981 332.841Z" fill="#1D7E8F"/>
<path d="M182.299 339.918C179.725 338.202 177.495 334.042 175.351 330.01C172.434 324.52 169.389 318.859 165.229 318.988C158.538 319.159 152.576 311.267 152.49 311.224L151.933 311.653C152.19 311.997 158.195 319.888 165.229 319.717C168.96 319.631 171.919 325.078 174.707 330.396C176.895 334.471 179.168 338.717 181.87 340.561C183.5 341.634 186.502 343.821 190.062 346.609V345.708C186.931 343.092 184.143 341.119 182.299 339.918Z" fill="white"/>
<path d="M408.329 393.059C408.329 393.059 412.19 383.451 405.156 369.812C398.079 356.173 392.374 358.275 409.402 347.767C426.429 337.259 409.487 304.233 423.984 300.03C438.481 295.827 451.048 242.343 462.071 249.163C473.093 255.982 458.382 282.188 466.274 290.08C474.123 297.972 475.195 307.965 458.94 316.071C442.684 324.177 470.477 355.144 448.432 364.58C426.386 374.016 432.734 411.03 408.329 393.059Z" fill="#72D1E2"/>
<path d="M415.063 403.224C415.02 403.095 412.661 390.828 420.167 374.959C427.802 358.79 431.447 341.119 429.946 327.651C429.131 320.36 433.806 317.529 438.31 314.784C442.77 312.082 447.359 309.252 447.102 302.089C446.888 295.613 449.633 280.429 449.718 279.786L450.705 279.958C450.662 280.129 447.874 295.698 448.089 302.046C448.346 309.809 443.499 312.769 438.824 315.599C434.364 318.301 430.203 320.875 430.932 327.523C432.477 341.119 428.788 359.004 421.068 375.345C413.734 390.914 416.007 402.881 416.05 403.009L415.063 403.224Z" fill="white"/>
<path d="M473.608 323.534C479.741 320.617 486.261 321.947 482.872 328.08C479.484 334.214 474.423 334.685 475.367 339.532C476.31 344.378 478.798 349.654 470.82 352.742C462.843 355.787 459.111 355.273 454.265 364.237C449.375 373.201 447.702 379.849 439.339 377.704C430.975 375.517 437.924 364.494 442.255 359.862C442.255 359.862 448.131 354.887 448.046 345.923C447.96 336.959 444.271 330.954 455.852 331.554C467.432 332.069 469.448 325.507 473.608 323.534Z" fill="#1A7180"/>
<path d="M438.009 383.966C438.352 382.808 446.416 355.058 453.021 352.056C459.755 348.968 463.4 340.904 464.987 336.401C467.046 330.525 475.838 329.367 476.181 329.324L476.31 330.311C476.224 330.311 467.775 331.426 465.931 336.701C463.958 342.406 460.184 349.868 453.45 352.957C447.274 355.787 439.082 383.966 438.996 384.266L438.009 383.966ZM225.575 361.62C212.365 358.318 212.193 351.198 212.022 344.336C211.893 338.717 211.764 333.399 204.602 330.139C195.123 325.807 194.909 317.787 194.694 310.71C194.523 305.434 194.394 300.459 190.448 297.757C180.969 291.281 172.949 275.583 172.863 275.411L173.592 275.025C173.678 275.197 181.57 290.68 190.92 297.071C195.209 299.987 195.38 305.177 195.509 310.667C195.723 317.83 195.938 325.292 204.945 329.367C212.536 332.841 212.708 338.674 212.837 344.293C213.008 351.155 213.18 357.674 225.789 360.805L225.575 361.62Z" fill="white"/>
<path d="M207.776 355.273H424.756V198.638C424.756 196.408 422.955 194.564 420.682 194.564H211.85C209.62 194.564 207.776 196.365 207.776 198.638V355.273Z" fill="#EFFAFC"/>
<path d="M416.68 326.07H215.44L215.44 202.418L416.68 202.418V326.07Z" fill="#165E6A" stroke="white" stroke-width="0.21445" stroke-miterlimit="10"/>
<path d="M424.756 332.069H207.861L184.1 420.809H448.474L424.756 332.069Z" fill="#E9F8FB"/>
<path d="M216.053 347.638H229.392C229.95 347.638 230.379 348.067 230.25 348.539L228.963 354.329C228.877 354.672 228.534 354.93 228.105 354.93H214.552C213.995 354.93 213.566 354.501 213.694 353.986L215.195 348.196C215.281 347.896 215.624 347.638 216.053 347.638ZM235.482 347.638H245.562L244.232 354.972H233.938L235.482 347.638ZM250.58 347.638H260.659L259.63 354.972H249.336L250.58 347.638ZM265.72 347.638H275.799L275.027 354.972H264.733L265.72 347.638ZM280.817 347.638H290.896L290.425 354.972H280.131L280.817 347.638ZM295.915 347.638H305.994L305.822 354.972H295.528L295.915 347.638ZM416.864 347.638H401.724L403.354 354.972H418.752L416.864 347.638ZM396.706 347.638H386.627L387.957 354.972H398.25L396.706 347.638ZM381.609 347.638H371.53L372.559 354.972H382.853L381.609 347.638ZM366.469 347.638H356.389L357.161 354.972H367.455L366.469 347.638ZM351.371 347.638H341.292L341.764 354.972H352.058L351.371 347.638ZM336.274 347.638H326.195L326.366 354.972H336.66L336.274 347.638ZM311.055 347.638H321.134L321.263 354.972H311.055V347.638ZM211.636 360.419H232.652L231.451 367.968H210.006L211.636 360.419ZM420.124 360.419H394.133L395.591 367.968H422.14L420.124 360.419ZM388.9 360.419H378.521L379.679 367.968H390.316L388.9 360.419ZM373.288 360.419H362.909L363.767 367.968H374.403L373.288 360.419ZM357.676 360.419H347.297L347.897 367.968H358.491L357.676 360.419ZM342.064 360.419H331.685L331.985 367.968H342.579L342.064 360.419ZM208.462 373.844H229.993L228.406 381.35H206.489L208.462 373.844ZM235.354 373.844H246.119L244.875 381.35H233.896L235.354 373.844ZM251.523 373.844H332.199L332.5 381.35H250.322L251.523 373.844ZM337.604 373.844H348.369L348.97 381.35H337.99L337.604 373.844ZM353.73 373.844H364.496L365.396 381.35H354.417L353.73 373.844ZM369.9 373.844H380.665L381.823 381.35H370.886L369.9 373.844ZM386.027 373.844H396.792L398.25 381.35H387.313L386.027 373.844ZM402.153 373.844H423.684L425.657 381.35H403.74L402.153 373.844ZM326.495 360.419H316.159V367.968H326.667L326.495 360.419ZM310.883 360.419H300.461L300.161 367.968H310.797L310.883 360.419ZM295.271 360.419H284.849L284.248 367.968H294.885L295.271 360.419ZM279.659 360.419H269.237L268.336 367.968H278.973L279.659 360.419ZM264.047 360.419H253.625L252.424 367.968H263.061L264.047 360.419ZM248.435 360.419H238.013L236.555 367.968H247.149L248.435 360.419ZM216.525 343.049L218.241 336.53H223.13L221.543 343.049H216.525ZM228.02 336.53H237.799L236.469 343.049H226.476L228.02 336.53ZM242.731 336.53H252.51L251.395 343.049H241.444L242.731 336.53ZM257.399 336.53H267.178L266.32 343.049H256.37L257.399 336.53ZM272.068 336.53H281.847L281.246 343.049H271.296L272.068 336.53ZM286.736 336.53H296.515L296.172 343.049H286.221L286.736 336.53ZM301.404 336.53H311.183L311.098 343.049H301.147L301.404 336.53ZM316.073 336.53H325.852L326.023 343.049H316.073V336.53ZM330.741 336.53H340.52L340.949 343.049H330.999L330.741 336.53ZM345.41 336.53H355.231L355.875 343.049H345.924L345.41 336.53ZM360.121 336.53H369.9L370.843 343.049H360.893L360.121 336.53ZM374.789 336.53H384.568L385.769 343.049H375.819L374.789 336.53ZM389.458 336.53H399.237L400.695 343.049H390.744L389.458 336.53ZM404.126 336.53H413.905L415.621 343.049H405.67L404.126 336.53Z" fill="#165E6A" stroke="white" stroke-width="0.21445" stroke-miterlimit="10"/>
<path d="M441.569 427.714H191.006C187.188 427.714 184.1 424.626 184.1 420.809H448.474C448.474 424.626 445.386 427.714 441.569 427.714ZM347.04 392.115C346.782 390.571 345.41 389.413 343.866 389.413H288.752C287.165 389.413 285.835 390.571 285.578 392.115L282.147 412.917C281.804 414.89 283.348 416.691 285.321 416.691H347.254C349.27 416.691 350.771 414.89 350.428 412.917L347.04 392.115Z" fill="#B6E7F0"/>
<path d="M229.006 212.921H251.438V215.237H229.006V212.921ZM257.742 230.205H273.912V232.521H257.742V230.205ZM276.442 230.205H287.165V232.521H276.442V230.205ZM229.263 273.696H239.986V276.012H229.263V273.696ZM289.31 230.205H315.258V232.521H289.31V230.205ZM229.263 264.989H245.948V267.305H229.263V264.989ZM252.51 282.317H262.675V284.633H252.51V282.317ZM229.263 282.317H249.422V284.633H229.263V282.317ZM229.263 290.98H240.372V293.297H229.263V290.98ZM255.812 212.921H271.725V215.237H255.812V212.921ZM255.812 238.869H271.725V241.185H255.812V238.869ZM247.835 247.49H254.654V249.806H247.835V247.49ZM241.058 256.282H256.327V258.598H241.058V256.282ZM258.643 256.282H279.745V258.598H258.643V256.282ZM229.263 247.576H245.176V249.892H229.263V247.576ZM229.263 256.282H238.699V258.598H229.263V256.282ZM257.871 247.576H266.792V249.892H257.871V247.576ZM229.564 299.601H238.485V301.917H229.564V299.601ZM229.221 230.205H245.133V232.521H229.221V230.205ZM243.288 273.696H259.201V276.012H243.288V273.696ZM243.503 290.98H259.415V293.297H243.503V290.98ZM271.767 290.98H287.68V293.297H271.767V290.98ZM229.221 238.869H251.909V241.185H229.221V238.869ZM335.545 212.921H351.457V215.237H335.545V212.921ZM278.844 299.601H294.757V301.917H278.844V299.601ZM356.39 212.921H367.026V215.237H356.39V212.921ZM392.46 221.584H403.097V223.9H392.46V221.584ZM276.014 212.921H296.301V215.237H276.014V212.921ZM355.017 221.584H375.304V223.9H355.017V221.584ZM330.141 230.205H350.428V232.521H330.141V230.205ZM303.763 238.869H324.05V241.185H303.763V238.869ZM352.958 230.205H367.369V232.521H352.958V230.205ZM311.269 212.921H331.556V215.237H311.269V212.921ZM288.151 238.869H300.032V241.185H288.151V238.869ZM278.844 273.824H290.725V276.141H278.844V273.824ZM300.032 212.921H307.452V215.237H300.032V212.921ZM276.014 238.869H283.434V241.185H276.014V238.869ZM380.194 221.584H387.614V223.9H380.194V221.584ZM229.006 221.584H240.629V223.9H229.006V221.584ZM260.016 265.032H269.194V267.348H260.016V265.032ZM243.503 221.584H247.234V223.9H243.503V221.584ZM320.448 221.584H351.457V223.9H320.448V221.584ZM290.725 290.98H321.734V293.297H290.725V290.98ZM249.979 221.584H253.797V223.9H249.979V221.584ZM307.452 221.584H317.574V223.9H307.452V221.584ZM317.617 230.205H327.739V232.521H317.617V230.205ZM265.463 299.601H275.585V301.917H265.463V299.601ZM283.219 221.584H304.793V223.9H283.219V221.584ZM263.104 273.824H275.713V276.141H263.104V273.824ZM262.332 290.98H268.637V293.297H262.332V290.98ZM272.711 221.584H280.131V223.9H272.711V221.584ZM247.749 230.205H255.169V232.521H247.749V230.205ZM249.207 265.032H256.627V267.348H249.207V265.032ZM256.97 221.584H269.923V223.9H256.97V221.584Z" fill="#EFFAFC"/>
<path d="M365.568 238.955C365.568 238.955 369.342 245.345 370.929 246.375C373.074 247.79 371.744 249.206 370.715 249.248C369.685 249.248 364.453 249.634 363.295 248.305C362.137 246.975 361.579 243.072 360.507 242.043C359.435 241.014 358.32 236.939 361.022 235.953C363.381 235.052 365.568 238.955 365.568 238.955Z" fill="#6ED0E1"/>
<path d="M363.895 236.167C363.895 236.167 368.227 243.673 368.956 244.745C369.685 245.86 367.541 245.86 366.211 245.345C364.882 244.831 361.536 239.47 361.065 238.483C360.507 237.325 360.979 235.995 360.979 235.995L363.895 236.167Z" fill="#D3F1F6"/>
<path d="M359.52 240.156L360.55 247.833L361.065 247.876L360.893 242.343L359.52 240.156ZM328.125 238.955C328.125 238.955 331.899 245.345 333.486 246.375C335.631 247.79 334.301 249.206 333.272 249.248C332.242 249.248 327.01 249.634 325.852 248.305C324.694 246.975 324.136 243.072 323.064 242.043C321.992 241.014 320.834 236.81 323.579 235.953C325.98 235.18 328.125 238.955 328.125 238.955Z" fill="#6ED0E1"/>
<path d="M326.71 236.167C326.71 236.167 330.784 243.63 331.556 244.745C332.285 245.86 330.141 245.86 328.811 245.345C327.482 244.831 324.136 239.47 323.664 238.483C323.107 237.325 323.579 235.995 323.579 235.995L326.71 236.167Z" fill="#D3F1F6"/>
<path d="M322.12 240.156L323.107 247.833L323.664 247.876L323.493 242.343L322.12 240.156Z" fill="#6ED0E1"/>
<path d="M311.398 180.753L345.538 196.322C345.538 196.322 349.356 197.566 349.784 201.812C351.114 215.022 360.979 235.952 360.979 235.952C364.153 237.497 363.895 236.167 363.895 236.167C361.879 229.733 359.478 203.313 358.577 192.719C358.405 190.489 358.277 188.945 358.234 188.43C358.234 188.087 357.848 187.658 357.204 187.144C352.529 183.326 333.229 175.477 333.229 175.477C318.861 175.091 311.398 180.753 311.398 180.753Z" fill="#D3F1F6"/>
<path d="M304.964 187.444C306.037 196.665 319.204 195.636 319.204 195.636H335.159C335.159 195.636 330.956 204.986 329.326 212.835C327.61 221.198 323.536 235.952 323.536 235.952C323.536 235.952 323.793 236.467 326.71 236.167C326.71 236.167 339.234 211.205 344.037 204.9C345.067 203.57 348.026 196.193 348.541 191.819C348.712 190.36 348.626 189.202 348.069 188.731C347.511 188.259 346.225 187.401 344.552 186.329C339.534 183.155 330.87 178.308 326.023 177.236C319.547 175.778 309.296 173.033 309.296 173.033C309.296 173.033 303.892 178.222 304.964 187.444Z" fill="#D3F1F6"/>
<path d="M315.816 116.332C315.816 116.332 313.414 111.786 314.572 106.982C315.73 102.136 320.233 97.3318 326.795 99.5621C333.358 101.792 338.676 106.853 334.73 112.772C330.784 118.648 338.29 121.35 336.36 124.138C334.43 126.926 335.159 129.885 335.974 130.529C336.789 131.172 339.405 133.488 339.105 136.276C338.805 139.021 326.366 128.256 326.366 128.256C326.366 128.256 319.633 114.574 315.816 116.332Z" fill="#1A7180"/>
<path d="M335.845 174.32C335.845 174.32 334.859 179.123 309.339 173.076C309.339 173.076 317.874 170.245 335.845 174.32Z" fill="#56C8DC"/>
<path d="M309.039 174.405C308.653 175.177 308.267 175.906 307.838 176.678C317.145 176.936 326.495 177.236 335.802 177.493C334.344 172.561 334.816 165.87 335.073 160.809C335.373 154.59 338.805 150.301 338.462 144.039C340.306 144.339 340.606 144.382 342.45 144.683C339.62 136.619 338.676 132.63 329.884 129.542C327.01 128.513 325.166 128.341 322.078 128.599C311.913 129.457 308.867 129.542 303.849 138.764C311.655 140.007 310.369 142.795 312.727 150.601C313.886 154.376 315.086 158.622 314.486 162.611C313.886 166.514 309.039 170.845 309.039 174.405Z" fill="white"/>
<path d="M325.251 131.472C321.091 130.7 321.992 128.384 321.992 128.384C321.992 128.384 322.163 127.098 322.249 125.425C322.249 124.996 322.292 124.567 322.292 124.095C322.292 123.409 322.249 122.723 322.163 122.037C321.82 119.249 329.712 120.921 329.712 120.921C329.712 120.921 329.24 126.583 330.355 128.256C331.428 129.971 329.412 132.287 325.251 131.472Z" fill="#D3F1F6"/>
<path d="M317.317 128.384C317.317 128.384 325.723 138.077 328.811 140.308C328.811 140.308 332.371 137.091 330.184 128.599C330.184 128.599 326.152 126.54 317.317 128.384ZM317.574 105.052C317.574 105.052 313.199 113.458 317.531 121.393C321.863 129.328 330.355 117.919 330.87 116.589C331.428 115.26 334.344 107.668 328.554 105.395C322.764 103.079 318.818 102.779 317.574 105.052Z" fill="#D3F1F6"/>
<path d="M325.98 122.251C325.98 122.251 325.208 123.924 322.249 125.425C322.249 124.996 322.292 124.567 322.292 124.095C322.292 124.095 324.308 123.881 325.98 122.251Z" fill="#BCE9F1"/>
<path d="M281.932 166.857C281.932 166.857 279.874 167.757 278.887 167.371C277.901 166.942 276.4 166.857 275.928 166.857C275.284 166.857 273.269 166.128 273.312 166.942C273.354 167.714 276.571 168.272 277.215 168.529C277.858 168.787 275.242 170.202 274.984 170.845C274.727 171.489 277.729 175.692 279.402 174.491C281.075 173.29 281.975 170.888 282.318 170.717C282.662 170.545 283.562 169.902 283.562 169.902L281.932 166.857Z" fill="#D3F1F6"/>
<path d="M275.327 170.459C275.327 170.459 270.481 174.491 270.395 175.049C270.309 175.606 270.567 175.864 271.038 175.477C271.51 175.134 275.842 171.703 275.842 171.703C275.842 171.703 270.995 177.45 270.824 177.879C270.738 178.137 271.21 178.651 271.467 178.48C271.725 178.308 276.914 172.904 276.914 172.904C276.914 172.904 272.368 178.265 272.368 178.694C272.325 179.037 272.883 179.423 273.269 179.037C273.655 178.651 278.158 173.933 278.158 173.933C278.158 173.933 275.113 178.051 275.327 178.437C275.456 178.651 275.842 179.123 276.571 178.051C277.3 176.979 279.359 174.577 279.359 174.577L275.327 170.459Z" fill="#D3F1F6"/>
<path d="M333.486 195.593H319.204C319.204 195.593 306.037 196.665 304.964 187.401C303.892 178.18 309.296 173.033 309.296 173.033C309.296 173.033 316.244 174.877 322.335 176.335C325.38 175.692 329.026 175.263 333.315 175.392C333.315 175.392 359.049 183.884 358.277 188.387C358.277 188.43 347.511 182.683 333.486 195.593Z" fill="#1A7180"/>
<path d="M324.179 179.638L351.457 179.209L337.689 186.2L324.179 179.638Z" fill="#E9F8FB"/>
<path d="M332.671 176.121C332.671 176.121 326.538 178.48 319.032 176.335L318.689 173.547L334.173 174.405L332.671 176.121Z" fill="white"/>
<path d="M337.689 186.2L324.179 180.967V179.638L338.762 184.87L337.689 186.2Z" fill="#B6E7F0"/>
<path d="M332.543 177.45C332.457 178.437 333.486 179.166 334.43 178.78L336.017 178.094C336.489 177.879 336.789 177.408 336.703 176.893C336.06 172.775 334.644 156.735 336.703 153.947C337.475 152.917 337.947 152.017 338.204 151.245C339.577 154.762 341.249 159.308 341.936 161.753L354.803 178.909L359.135 180.024C353.73 167.028 349.398 160.166 349.398 160.166C348.541 157.893 346.139 151.03 343.994 144.94C342.622 141.08 341.421 137.52 340.735 135.633C340.392 134.646 339.748 133.831 338.848 133.317C336.832 132.116 333.529 130.229 330.527 128.77H330.484C330.398 128.727 330.312 128.685 330.184 128.642C335.931 137.263 333.701 161.753 332.543 177.45C332.543 177.408 332.543 177.408 332.543 177.45ZM311.269 129.328C309.425 129.628 304.879 134.046 302.477 138.506C299.732 143.61 296.901 149.4 294.799 151.288C290.939 154.805 280.088 167.2 279.573 166.9C279.359 166.771 282.533 170.588 282.962 170.76C283.176 170.845 300.761 155.577 302.477 153.261C304.064 151.073 308.353 141.809 309.639 142.023C309.725 142.238 311.312 145.626 312.77 150.558C312.813 150.644 312.813 150.73 312.856 150.816C313.886 154.247 313.8 158.021 313.242 162.225C312.813 165.398 310.454 170.588 309.039 173.119C308.867 173.419 308.91 174.019 309.082 174.448C309.211 174.706 309.339 174.92 309.554 175.006L314.743 176.936L315.944 177.365C316.802 177.708 317.746 177.536 318.432 177.022C318.989 176.636 319.418 175.992 319.504 175.22C320.662 166.385 322.12 157.335 323.278 153.947C328.382 139.021 321.306 127.784 321.306 127.784C321.306 127.784 312.899 128.727 311.269 129.328Z" fill="#72D1E2"/>
<path d="M337.689 186.2L345.796 164.069L371.916 164.498L364.196 184.913L337.689 186.2Z" fill="#72D1E2"/>
<path d="M354.159 173.848C353.344 175.435 353.602 177.193 354.717 177.708C355.832 178.265 357.333 177.408 358.148 175.821C358.963 174.234 358.706 172.475 357.59 171.961C356.475 171.403 354.931 172.261 354.159 173.848Z" fill="#E8F7FA"/>
<path d="M338.29 132.03C336.36 129.113 334.987 126.797 334.816 122.637C334.687 119.892 334.087 116.161 332.2 114.316C334.172 109.17 331.856 107.626 330.913 105.953C329.755 103.851 321.177 98.7902 317.788 104.109C314.4 109.384 315.601 114.917 315.601 114.917C315.944 112 318.947 108.054 318.947 108.054C319.418 111.1 325.723 116.075 328.468 118.091C328.425 118.134 328.382 118.219 328.382 118.262C326.838 120.493 328.768 122.723 329.111 125.082C329.455 127.441 322.635 133.788 330.227 136.962C337.818 140.179 340.22 134.904 338.29 132.03ZM200.227 381.864C200.227 381.864 200.055 383.666 191.649 383.666C183.242 383.666 171.019 381.478 171.019 381.478L190.534 379.591C190.534 379.591 198.039 379.205 200.227 381.864Z" fill="#1A7180"/>
<path d="M178.825 382.508C174.064 382.508 172.048 384.953 170.161 385.725C168.274 386.497 166.387 387.655 166.387 387.612C167.459 385.51 168.96 385.467 169.732 384.781C170.504 384.095 170.29 384.438 168.617 384.309C167.673 384.223 165.958 385.982 164.757 386.968C163.685 387.783 163.041 387.869 163.041 387.869C163.041 387.869 164.285 386.111 165.829 384.695C167.716 382.98 170.075 381.564 170.633 381.307C171.662 380.878 174.836 380.792 177.066 381.092C179.64 381.436 182.256 382.508 178.825 382.508Z" fill="#1A7180"/>
<path d="M170.933 381.393C170.933 381.393 167.287 382.336 166.644 382.851C166.215 383.194 164.328 385.21 164.328 385.21C164.328 385.21 165.7 384.995 166.472 384.223C167.287 383.409 170.933 381.393 170.933 381.393ZM193.322 378.176C193.322 378.176 202.5 378.776 201.857 384.438C201.514 387.655 199.412 388.77 196.624 388.512C191.477 388.084 185.644 387.312 185.644 387.312L183.028 378.519L193.322 378.176Z" fill="#1A7180"/>
<path d="M195.252 378.948L204.259 349.911C204.259 349.911 205.588 345.665 207.776 346.437C210.906 347.595 209.362 351.069 209.105 353.128C208.548 357.331 208.934 359.176 206.017 369.298C204.216 375.56 202.672 382.765 201.128 386.883C200.055 389.713 198.211 385.639 195.423 384.524C190.191 382.422 195.252 378.948 195.252 378.948ZM195.938 334.128C197.696 339.189 203.143 341.805 208.162 339.961C213.137 338.117 215.796 332.498 214.037 327.437C212.279 322.376 206.832 319.76 201.814 321.604C196.839 323.448 194.179 329.067 195.938 334.128Z" fill="#1A7180"/>
<path d="M186.073 334.6C188.818 338.717 194.308 339.746 198.297 336.916L197.739 332.069C201.728 329.195 202.715 323.534 199.97 319.417L198.082 316.629C195.337 312.511 189.848 311.482 185.859 314.313L184.057 315.599C180.069 318.473 179.082 324.134 181.827 328.252L186.073 334.6Z" fill="#1A7180"/>
<path d="M182.47 321.089C182.942 321.775 183.457 322.419 184.057 323.062C188.003 327.351 193.279 328.981 196.624 327.223C198.168 329.324 199.927 330.997 201.514 332.284C203.358 333.785 208.076 334.385 208.076 334.385C210.821 337.387 200.527 354.929 199.798 354.844C198.297 354.715 196.367 345.022 197.782 341.505C198.426 339.918 199.455 338.031 199.155 337.173C198.082 334.214 196.581 334.728 196.581 334.728C196.581 334.728 194.608 337.044 193.064 336.959C191.477 336.83 188.732 334.342 188.604 334.299C188.132 333.913 187.703 333.442 187.317 332.884L183.2 326.708C182.127 324.992 181.87 322.934 182.47 321.089Z" fill="#D3F1F6"/>
<path d="M213.952 394.989C213.952 394.989 210.606 399.02 209.577 399.449C208.204 400.05 204.001 398.763 204.001 398.763C204.001 398.763 202.886 380.277 201.599 373.072C200.313 365.866 198.426 363.979 198.34 361.706C198.211 358.06 195.166 356.602 195.681 353.771C196.195 350.941 197.096 340.819 197.396 342.148C200.012 353.643 203.229 344.078 203.958 342.577C204.344 341.762 213.952 394.989 213.952 394.989Z" fill="#E8F7FA"/>
<path d="M198.726 338.717C198.726 338.717 194.651 343.178 194.951 344.936C195.209 346.695 193.193 352.185 195.209 359.819C197.482 368.526 198.683 374.444 199.112 380.149C199.541 385.853 197.611 391.086 198.383 398.077C198.983 403.567 200.227 403.867 200.227 403.867C200.227 403.867 202.672 404.468 204.387 402.323C206.103 400.221 203.529 381.521 202.672 376.889C201.814 372.214 199.069 361.32 198.34 358.103C197.439 354.158 197.611 350.126 197.653 348.968C197.868 344.893 198.383 342.363 198.811 340.819C198.854 340.604 199.069 338.202 198.726 338.717ZM205.845 343.95C208.076 350.383 215.024 353.686 221.372 351.327C227.719 348.968 231.065 341.848 228.834 335.415C226.604 328.981 219.656 325.679 213.308 328.037C206.961 330.354 203.615 337.516 205.845 343.95Z" fill="#1A7180"/>
<path d="M184.014 454.52L186.288 472.663L176.423 477.338L170.976 478.539L180.669 471.033L177.495 454.649L184.014 454.52Z" fill="#AFE5EF"/>
<path d="M186.931 475.408L184.786 475.965L183.328 474.636L175.436 478.581L168.445 480.254C168.445 480.254 168.36 479.697 168.574 479.396C169.432 478.238 174.364 475.708 174.364 475.708C174.364 475.708 174.45 477.381 175.136 477.423C175.822 477.466 181.87 474.292 183.285 473.435C185.687 471.934 186.159 470.947 186.331 471.076C186.845 471.333 186.931 475.408 186.931 475.408Z" fill="#1A7180"/>
<path d="M160.21 429.301L152.362 444.741L141.553 444.227L136.149 442.64L148.115 440.624L154.635 427.414L160.21 429.301Z" fill="#AFE5EF"/>
<path d="M151.718 447.486L149.574 446.972L148.887 445.084L139.151 444.956L133.361 443.583C133.361 443.583 134.048 442.811 134.476 442.597C135.763 442.039 140.352 441.782 140.352 441.782C140.352 441.782 139.881 443.111 140.481 443.455C141.081 443.841 147.772 444.055 149.402 443.926C152.233 443.712 153.048 443.111 153.134 443.283C153.434 443.883 151.718 447.486 151.718 447.486Z" fill="#1A7180"/>
<path d="M217.469 383.108L211.636 385.725L211.678 393.745L171.491 387.183C171.491 387.183 167.673 385.939 165.229 392.244C161.754 401.165 152.919 428.915 152.919 428.915L158.495 434.962L176.037 403.61C176.037 403.61 211.979 421.066 223.816 417.292C228.363 415.833 231.837 407.513 231.193 399.106C230.679 392.501 229.392 386.454 229.392 386.454L217.469 383.108Z" fill="#6ED0E1"/>
<path d="M212.365 417.12L183.586 414.976L186.073 460.954L177.581 461.254L171.319 407.384C171.319 407.384 172.992 399.364 178.482 400.564C184.014 401.808 197.31 412.359 212.365 417.12Z" fill="#6ED0E1"/>
<path d="M231.751 428.657C231.751 428.657 216.654 411.716 212.751 402.151C208.076 390.7 208.462 376.332 207.604 371.571C206.017 362.821 204.087 345.837 203.744 343.735C203.358 341.634 204.687 339.275 204.687 339.275C204.687 339.275 203.701 332.927 206.532 333.613C210.606 334.6 214.638 336.83 216.053 337.516C218.713 338.717 224.16 370.713 224.46 372.257C225.575 377.833 229.649 382.894 232.566 388.083C239.428 400.393 241.187 414.933 241.187 414.933C241.187 414.933 240.329 425.569 231.751 428.657Z" fill="#1D7E8F"/>
<path d="M216.182 384.352C216.182 384.352 216.053 386.411 206.446 385.939C196.839 385.424 182.771 382.208 182.771 382.208L205.031 381.178C205.031 381.178 213.566 381.221 216.182 384.352Z" fill="#D3F1F6"/>
<path d="M190.319 383.323C185.73 383.237 183.757 385.596 181.956 386.325C180.154 387.054 178.31 388.126 178.31 388.126C179.339 386.111 180.798 386.068 181.57 385.424C182.299 384.781 182.127 385.124 180.497 384.953C179.554 384.867 177.924 386.539 176.766 387.483C175.737 388.298 175.093 388.341 175.093 388.341C175.093 388.341 176.294 386.625 177.795 385.253C179.64 383.623 181.87 382.25 182.428 382.036C183.414 381.65 186.459 381.607 188.647 381.95C191.091 382.293 193.622 383.408 190.319 383.323Z" fill="#D3F1F6"/>
<path d="M182.642 382.079C182.642 382.079 179.125 382.937 178.525 383.408C178.096 383.752 176.294 385.682 176.294 385.682C176.294 385.682 177.581 385.467 178.353 384.738C179.125 384.052 182.642 382.079 182.642 382.079Z" fill="#D3F1F6"/>
<path d="M208.505 382.079L222.744 374.573C222.744 374.573 222.787 383.666 222.873 387.14C222.959 390.614 224.417 395.503 221.672 396.233C218.927 396.962 217.512 396.576 220.342 398.248C223.173 399.878 222.53 401.594 221.457 403.009C220.385 404.425 225.06 418.836 223.945 419.651C219.527 414.075 214.767 407.17 212.708 402.151C210.092 395.632 209.062 388.169 208.505 382.079Z" fill="#1A7180"/>
<path d="M213.094 378.433L212.536 349.44C212.536 349.44 212.579 340.39 212.751 337.731C212.922 334.986 217.597 338.202 217.597 338.202C217.597 338.202 224.16 347.081 224.288 368.483C224.374 382.808 223.602 390.271 216.997 389.67C210.864 389.113 203.873 388.169 203.873 388.169L200.827 380.235L213.094 378.433Z" fill="#1D7E8F"/>
<path d="M211.636 393.745L162.612 387.612L162.741 386.582L211.764 392.716L211.636 393.745Z" fill="#B6E7F0"/>
<path d="M190.148 389.971C190.062 390.786 189.419 391.386 188.732 391.3L163.599 388.169C162.913 388.084 162.055 387.44 161.454 385.296L151.761 360.205C151.89 359.176 152.705 358.661 153.391 358.918L179.082 362.95C179.768 363.207 180.24 363.808 180.497 364.923L190.148 389.971Z" fill="#B6E7F0"/>
<path d="M186.974 390.657L187.231 390.7L211.764 393.788C210.821 394.174 209.32 394.303 207.647 394.088L187.102 391.515L186.845 391.472L166.301 388.898C164.628 388.684 163.213 388.169 162.355 387.612L186.974 390.657Z" fill="#B6E7F0"/>
<path d="M213.094 378.433L212.536 349.44C212.536 349.44 212.965 346.995 213.823 344.807C214.037 347.981 215.496 370.842 215.667 373.844C215.882 377.104 218.541 377.447 219.099 378.519C219.699 379.548 219.184 379.763 217.211 379.377C215.281 378.948 215.968 379.291 216.396 380.32C216.825 381.393 215.753 381.092 211.979 379.72C209.234 378.733 203.958 379.72 201.299 380.32L213.094 378.433Z" fill="#1A7180"/>
<path d="M382.595 307.279C377.877 308.522 369.171 312.897 367.326 320.403C364.582 331.683 370.071 348.196 361.408 364.408C358.62 369.555 409.316 376.503 409.316 376.503L419.095 319.545C419.095 319.545 406.871 307.193 404.383 306.335C399.194 304.619 392.031 304.791 382.595 307.279Z" fill="#B5E7F0"/>
<path d="M419.138 319.588C420.896 324.134 425.357 351.198 420.381 357.589C419.824 358.318 422.955 359.476 422.397 362.821C422.312 363.379 421.368 366.081 421.368 366.081L417.336 367.153L408.544 356.988C408.544 356.988 412.104 351.455 416.779 330.482C418.151 324.306 418.752 318.559 419.138 319.588Z" fill="#1D7E8F"/>
<path d="M385.855 351.927C385.855 351.927 390.101 363.122 400.352 366.124C402.11 366.638 403.225 368.611 402.368 369.255C401.253 370.07 399.794 370.241 397.221 370.241C391.86 370.241 384.568 368.526 379.55 363.465C372.087 356.002 369.728 352.571 370.5 348.839C371.187 345.022 385.855 351.927 385.855 351.927Z" fill="#BCE9F1"/>
<path d="M368.785 316.629C366.597 320.317 365.354 326.236 365.396 334.728C365.396 341.29 370.886 352.056 371.701 355.358C371.83 355.916 372.173 358.275 372.173 358.275L378.221 364.451L390.358 355.916L386.67 350.04L385.555 350.169C385.555 350.169 384.869 346.909 385.04 345.665C385.212 344.421 381.695 327.48 379.936 316.629C378.95 310.324 370.929 312.983 368.785 316.629Z" fill="#1D7E8F"/>
<path d="M379.679 349.911L383.239 348.796L384.697 348.41C384.783 349.44 385.641 350.126 385.641 350.126L382.853 350.469L379.636 351.498L375.862 354.2L379.679 349.911Z" fill="#1A7180"/>
<path d="M399.58 366.081L405.756 364.322C405.756 364.322 407.514 366.767 407.171 367.368C406.828 367.968 407.171 371.571 407.171 371.571L404.169 374.23L401.724 373.372C401.724 373.372 401.553 372.257 402.368 372.171C403.225 372.043 401.81 371.442 401.381 371.185C400.952 370.885 397.392 368.997 399.58 366.081Z" fill="#BCE9F1"/>
<path d="M390.058 306.721C389.372 308.737 390.401 311.01 392.374 311.696L395.891 312.983C397.864 313.712 400.009 312.597 400.695 310.581L403.826 301.317C404.512 299.301 403.483 297.028 401.51 296.299L397.993 295.012C396.02 294.283 393.875 295.398 393.189 297.414L390.058 306.721Z" fill="#94DCE9"/>
<path d="M405.413 314.87C405.07 316.2 403.697 317.015 402.41 316.629L391.817 313.583C390.53 313.197 389.758 311.825 390.101 310.452L394.433 294.197C394.776 292.868 396.149 292.053 397.435 292.439L408.029 295.441C409.316 295.827 410.088 297.199 409.745 298.572L405.413 314.87Z" fill="#BCE9F1"/>
<path d="M410.903 296.942C410.989 296.856 409.916 295.655 410.474 293.297C411.203 290.123 408.844 288.836 407.086 288.793C406.056 288.75 402.582 290.423 400.738 290.98C398.894 291.538 399.065 290.809 395.72 290.208C393.489 289.78 392.975 291.023 392.203 292.739C391.431 294.497 391.345 301.188 391.345 301.188C391.645 301.617 392.117 301.96 392.417 301.617C392.717 301.274 393.918 295.913 394.905 294.326C395.848 292.739 399.708 295.269 401.81 296.513C403.869 297.757 405.713 297.972 409.016 297.285C409.402 297.714 409.745 298.186 409.745 298.4C409.745 298.829 408.801 301.875 408.801 301.875C408.801 301.875 410.645 300.716 411.16 299.816C411.417 299.516 411.503 298.057 410.903 296.942Z" fill="#72D1E2"/>
<path d="M393.447 307.064C393.318 307.493 392.889 307.793 392.46 307.665L390.187 307.021C389.758 306.893 389.501 306.421 389.629 305.992L390.787 301.66C390.916 301.231 391.345 300.931 391.774 301.06L394.047 301.703C394.476 301.832 394.733 302.303 394.605 302.732L393.447 307.064Z" fill="#BCE9F1"/>
<path d="M392.031 302.947C392.031 302.947 390.316 309.337 389.758 311.482C389.243 313.412 388.857 317.873 399.365 320.875C405.584 322.633 406.614 317.83 407.043 316.286C407.343 315.085 407 311.182 406.528 310.324C406.528 310.281 405.842 312.983 405.842 312.983C405.842 312.983 405.241 310.024 402.282 309.209C397.521 307.836 395.634 310.453 393.575 309.766C391.945 309.209 391.474 306.121 392.031 302.947Z" fill="#72D1E2"/>
<path d="M399.194 312.769L402.453 313.712C402.882 313.841 403.354 313.584 403.44 313.112L403.569 312.64L398.722 311.267L398.593 311.739C398.508 312.211 398.765 312.64 399.194 312.769Z" fill="#BCE9F1"/>
<path d="M450.876 377.747C449.375 382.079 422.955 397.991 414.077 397.048L387.356 398.377C364.667 395.503 353.902 358.961 353.902 358.961C354.803 349.783 377.191 363.079 385.169 367.196C397.778 373.715 405.799 374.058 405.799 374.058C414.248 374.959 424.027 368.183 434.707 367.968C446.416 367.668 453.278 370.927 450.876 377.747Z" fill="#165E6A"/>
<path d="M392.803 373.372C392.803 373.329 392.803 373.329 392.803 373.372V372.171L438.738 371.313V372.514L438.61 372.729C438.052 373.758 436.98 373.93 435.779 373.973L395.805 374.745C394.605 374.788 393.532 374.616 392.932 373.63L392.803 373.372Z" fill="#B6E7F0"/>
<path d="M403.869 373.329C403.869 373.329 403.869 373.372 403.869 373.329L403.74 373.544C403.569 373.801 403.354 374.016 403.097 374.144L396.106 374.273C394.948 374.316 393.918 374.187 393.318 373.372L393.189 373.201L393.146 373.158V372.6L403.783 372.386L403.869 373.329ZM410.088 372.9L433.034 372.472V371.657L410.045 372.128L410.088 372.9ZM404.126 371.914L409.659 348.41C409.788 347.81 410.388 347.295 410.989 347.252L443.242 346.652C443.842 346.652 444.185 347.124 444.057 347.767L438.524 371.271L404.126 371.914Z" fill="#B6E7F0"/>
<path d="M383.324 404.425C386.498 404.982 388.943 401.165 388.943 401.165L397.178 394.474L395.419 389.928L379.379 397.391C379.379 397.391 380.108 403.867 383.324 404.425Z" fill="#BCE9F1"/>
<path d="M388.9 400.908C388.9 400.908 388.9 401.294 388.3 403.052C387.699 404.811 386.927 405.411 386.155 405.668C383.067 406.612 380.88 406.14 373.503 407.599C366.126 409.057 363.895 407.942 361.751 404.425C359.606 400.908 361.837 398.12 365.439 397.862C370.629 397.476 373.546 398.077 376.248 397.648C379.078 397.219 379.25 396.533 380.923 395.461C382.467 394.474 383.925 400.393 382.467 401.765C381.137 402.966 387.828 403.138 388.9 400.908Z" fill="#6ED0E1"/>
<path d="M387.356 404.296C384.311 405.24 382.081 404.768 374.704 406.226C367.326 407.684 365.096 406.569 362.952 403.052C361.965 401.422 361.922 399.964 362.48 398.849C360.85 400.007 360.293 402.023 361.751 404.425C363.895 407.942 366.126 409.057 373.503 407.598C380.88 406.14 383.11 406.612 386.155 405.668C386.756 405.497 387.356 405.068 387.871 404.082C387.699 404.167 387.528 404.253 387.356 404.296Z" fill="white"/>
<path d="M388.901 401.037V400.951C388.901 400.994 388.858 401.037 388.814 401.08C388.858 401.037 388.901 401.037 388.901 401.037Z" fill="#B2E6EF"/>
<path d="M372.988 403.653C372.774 403.738 372.559 403.267 372.473 402.623C372.345 401.294 372.044 400.007 371.616 398.677C371.401 398.034 371.401 397.476 371.658 397.391C371.916 397.305 372.345 397.777 372.516 398.42C372.945 399.707 373.202 401.036 373.331 402.323C373.417 402.966 373.202 403.567 372.988 403.653ZM375.261 403.224C375.004 403.267 374.789 402.838 374.704 402.237C374.575 400.993 374.275 399.75 373.846 398.549C373.631 397.948 373.631 397.434 373.932 397.391C374.189 397.348 374.618 397.82 374.832 398.42C375.218 399.621 375.518 400.865 375.647 402.066C375.69 402.666 375.518 403.181 375.261 403.224ZM377.663 403.138C377.406 403.181 377.148 402.709 377.063 402.066C376.848 400.779 376.548 399.535 376.076 398.248C375.862 397.605 375.862 397.09 376.119 397.09C376.419 397.09 376.848 397.562 377.063 398.206C377.534 399.449 377.835 400.736 378.006 401.98C378.092 402.58 377.92 403.095 377.663 403.138Z" fill="white"/>
<path d="M383.882 393.488C383.882 393.488 440.368 369.426 443.585 369.383C454.479 369.298 451.991 380.706 446.459 386.111C439.939 392.458 390.358 404.082 390.358 404.082L383.882 393.488Z" fill="#1A7180"/>
<path d="M406.271 397.691L390.83 382.508L397.435 375.774L414.248 394.131L406.271 397.691Z" fill="#BCE9F1"/>
<path d="M409.445 385.767C409.445 385.767 370.2 348.496 367.584 347.381C358.62 343.607 353.087 353.857 353.387 357.417C353.816 362.006 393.661 399.321 393.661 399.321L409.445 385.767Z" fill="#1A7180"/>
<path d="M432.691 398.849C433.592 399.707 433.763 402.323 433.763 402.323C433.763 402.323 420.682 407.47 416.092 407.556C414.892 407.599 412.747 407.084 410.688 406.483C410.345 406.398 409.53 405.454 409.187 405.368C408.544 405.197 408.415 405.797 407.9 405.626C406.528 405.154 405.499 404.768 405.456 404.682C402.668 398.592 403.611 395.589 403.611 395.589C403.611 395.589 409.616 397.391 408.587 395.975C406.399 392.973 412.704 389.928 414.077 391.515C419.738 397.905 430.032 396.318 432.691 398.849Z" fill="#6ED0E1"/>
<path d="M433.42 400.136C429.388 401.808 420.939 405.197 419.266 405.325C412.361 405.84 407.557 403.309 404.341 401.808C404.641 402.666 404.984 403.653 405.456 404.682C405.499 404.768 406.485 405.154 407.9 405.626C408.458 405.797 408.587 405.154 409.187 405.368C409.53 405.454 410.302 406.398 410.688 406.483C412.747 407.084 414.892 407.556 416.092 407.556C420.682 407.47 433.763 402.323 433.763 402.323C433.763 402.323 433.763 401.122 433.42 400.136ZM424.199 396.19C424.327 396.447 423.813 396.704 423.084 396.876C421.582 397.176 420.124 397.648 418.666 398.248C417.937 398.549 417.293 398.634 417.208 398.377C417.122 398.12 417.594 397.648 418.323 397.348C419.738 396.747 421.239 396.318 422.698 396.018C423.384 395.804 424.07 395.932 424.199 396.19ZM421.239 395.117C421.368 395.375 420.853 395.718 420.124 395.932C418.666 396.361 417.25 396.962 415.835 397.691C415.149 398.034 414.506 398.163 414.42 397.905C414.334 397.648 414.806 397.09 415.492 396.747C416.864 396.061 418.28 395.461 419.738 395.075C420.467 394.774 421.153 394.86 421.239 395.117ZM418.409 394.174C418.494 394.431 418.022 394.817 417.336 395.075C415.921 395.632 414.548 396.318 413.219 397.133C412.575 397.562 411.975 397.691 411.889 397.391C411.803 397.133 412.232 396.533 412.919 396.104C414.248 395.289 415.621 394.603 416.993 394.088C417.679 393.874 418.323 393.917 418.409 394.174Z" fill="white"/>
</svg>
